<svg height="100" width="100" xmlns="http://www.w3.org/2000/svg"><path d="M89.488 53.271c-.023-.702-.045-1.405-.062-2.107-.111-4.071-.162-8.147-.389-12.218-.221-3.974-1.516-7.648-3.076-11.278-.535-1.247-1.859-2.265-3.051-3.026-1.986-1.268-4.648-1.547-6.93-1.715-3.053-.226-6.115-.22-9.174-.298-3.711-.094-7.426.263-11.125.033-3.695-.231-7.449-.248-11.152-.26-4.26-.013-8.516.112-12.773.164-2.098.024-4.199.032-6.299-.004-1.762-.032-4.828.155-6.473.83-3.287 1.347-4.182 2.835-5.951 6.006-.91 1.63-1.264 3.44-1.381 5.318-.115 1.873-.961 3.636-.91 5.496.078 2.886-.271 5.751-.266 8.632.016 7.754-.053 15.572 3.279 22.671l.771 1.351c.535.718.736 1.678 1.357 2.295 1.271 1.27 3.812 1.516 5.492 1.722 2.096.257 4.213.262 6.316.433 3.465.281 7.092-.09 10.561.084 3.484.174 6.93.252 10.422.161 8.5-.224 16.975.353 25.467-.263 3.492-.253 7.865.516 10.404-2.404 2.342-2.696 3.256-6.265 3.979-9.677.828-3.909 1.103-7.953.964-11.946zm-30.566.952c-1.195.809-2.492 1.441-3.742 2.154-2.543 1.452-4.986 3.15-7.469 4.713-.646.406-5.502 2.758-5.502 2.758.066-2.025.02-3.875-.051-5.812-.074-2.032.016-4.063-.016-6.096-.02-1.214-.01-10.899-.014-12.782-.002-.325 0-2.677 0-3.264.621.397 1.477.805 2.084 1.22 1.143.777 2.266 1.577 3.4 2.374 1.188.833 2.459 1.503 3.713 2.225 2.521 1.45 4.596 3.507 7.186 4.851 2.025 1.051 3.906 2.292 5.848 3.478-.144-.091-4.353 3.444-5.437 4.181z" fill="#C12025"/></svg>